TITLE ""
FILE "P1Q_t_0040-0049.mp3" MP3
  TRACK 01 AUDIO
    TITLE "P1Q_t_0040-0049_01"
    INDEX 01 00:00:00
  TRACK 02 AUDIO
    TITLE "P1Q_t_0040-0049_02"
    INDEX 01 00:01:22
  TRACK 03 AUDIO
    TITLE "P1Q_t_0040-0049_03"
    INDEX 01 00:01:43
  TRACK 04 AUDIO
    TITLE "P1Q_t_0040-0049_04"
    INDEX 01 00:03:54
  TRACK 05 AUDIO
    TITLE "P1Q_t_0040-0049_05"
    INDEX 01 00:03:73
  TRACK 06 AUDIO
    TITLE "P1Q_t_0040-0049_06"
    INDEX 01 00:08:53
  TRACK 07 AUDIO
    TITLE "P1Q_t_0040-0049_07"
    INDEX 01 00:09:23
  TRACK 08 AUDIO
    TITLE "P1Q_t_0040-0049_08"
    INDEX 01 00:10:32
  TRACK 09 AUDIO
    TITLE "P1Q_t_0040-0049_09"
    INDEX 01 00:10:54
  TRACK 10 AUDIO
    TITLE "P1Q_t_0040-0049_10"
    INDEX 01 00:12:57
  TRACK 11 AUDIO
    TITLE "P1Q_t_0040-0049_11"
    INDEX 01 00:13:01
  TRACK 12 AUDIO
    TITLE "P1Q_t_0040-0049_12"
    INDEX 01 00:19:39
  TRACK 13 AUDIO
    TITLE "P1Q_t_0040-0049_13"
    INDEX 01 00:20:09
  TRACK 14 AUDIO
    TITLE "P1Q_t_0040-0049_14"
    INDEX 01 00:21:30
  TRACK 15 AUDIO
    TITLE "P1Q_t_0040-0049_15"
    INDEX 01 00:21:44
  TRACK 16 AUDIO
    TITLE "P1Q_t_0040-0049_16"
    INDEX 01 00:24:48
  TRACK 17 AUDIO
    TITLE "P1Q_t_0040-0049_17"
    INDEX 01 00:24:72
  TRACK 18 AUDIO
    TITLE "P1Q_t_0040-0049_18"
    INDEX 01 00:28:32
  TRACK 19 AUDIO
    TITLE "P1Q_t_0040-0049_19"
    INDEX 01 00:29:02
  TRACK 20 AUDIO
    TITLE "P1Q_t_0040-0049_20"
    INDEX 01 00:30:21
  TRACK 21 AUDIO
    TITLE "P1Q_t_0040-0049_21"
    INDEX 01 00:30:39
  TRACK 22 AUDIO
    TITLE "P1Q_t_0040-0049_22"
    INDEX 01 00:33:49
  TRACK 23 AUDIO
    TITLE "P1Q_t_0040-0049_23"
    INDEX 01 00:33:70
  TRACK 24 AUDIO
    TITLE "P1Q_t_0040-0049_24"
    INDEX 01 00:39:20
  TRACK 25 AUDIO
    TITLE "P1Q_t_0040-0049_25"
    INDEX 01 00:39:67
  TRACK 26 AUDIO
    TITLE "P1Q_t_0040-0049_26"
    INDEX 01 00:40:73
  TRACK 27 AUDIO
    TITLE "P1Q_t_0040-0049_27"
    INDEX 01 00:41:17
  TRACK 28 AUDIO
    TITLE "P1Q_t_0040-0049_28"
    INDEX 01 00:44:62
  TRACK 29 AUDIO
    TITLE "P1Q_t_0040-0049_29"
    INDEX 01 00:45:09
  TRACK 30 AUDIO
    TITLE "P1Q_t_0040-0049_30"
    INDEX 01 00:50:02
  TRACK 31 AUDIO
    TITLE "P1Q_t_0040-0049_31"
    INDEX 01 00:50:51
  TRACK 32 AUDIO
    TITLE "P1Q_t_0040-0049_32"
    INDEX 01 00:51:61
  TRACK 33 AUDIO
    TITLE "P1Q_t_0040-0049_33"
    INDEX 01 00:52:07
  TRACK 34 AUDIO
    TITLE "P1Q_t_0040-0049_34"
    INDEX 01 00:55:35
  TRACK 35 AUDIO
    TITLE "P1Q_t_0040-0049_35"
    INDEX 01 00:55:54
  TRACK 36 AUDIO
    TITLE "P1Q_t_0040-0049_36"
    INDEX 01 01:01:16
  TRACK 37 AUDIO
    TITLE "P1Q_t_0040-0049_37"
    INDEX 01 01:01:61
  TRACK 38 AUDIO
    TITLE "P1Q_t_0040-0049_38"
    INDEX 01 01:02:72
  TRACK 39 AUDIO
    TITLE "P1Q_t_0040-0049_39"
    INDEX 01 01:03:19
  TRACK 40 AUDIO
    TITLE "P1Q_t_0040-0049_40"
    INDEX 01 01:06:60
  TRACK 41 AUDIO
    TITLE "P1Q_t_0040-0049_41"
    INDEX 01 01:07:05
  TRACK 42 AUDIO
    TITLE "P1Q_t_0040-0049_42"
    INDEX 01 01:12:47
  TRACK 43 AUDIO
    TITLE "P1Q_t_0040-0049_43"
    INDEX 01 01:13:19
  TRACK 44 AUDIO
    TITLE "P1Q_t_0040-0049_44"
    INDEX 01 01:14:28
  TRACK 45 AUDIO
    TITLE "P1Q_t_0040-0049_45"
    INDEX 01 01:14:50
  TRACK 46 AUDIO
    TITLE "P1Q_t_0040-0049_46"
    INDEX 01 01:18:50
  TRACK 47 AUDIO
    TITLE "P1Q_t_0040-0049_47"
    INDEX 01 01:18:71
  TRACK 48 AUDIO
    TITLE "P1Q_t_0040-0049_48"
    INDEX 01 01:23:12
  TRACK 49 AUDIO
    TITLE "P1Q_t_0040-0049_49"
    INDEX 01 01:23:57
  TRACK 50 AUDIO
    TITLE "P1Q_t_0040-0049_50"
    INDEX 01 01:24:66
  TRACK 51 AUDIO
    TITLE "P1Q_t_0040-0049_51"
    INDEX 01 01:25:12
  TRACK 52 AUDIO
    TITLE "P1Q_t_0040-0049_52"
    INDEX 01 01:28:32
  TRACK 53 AUDIO
    TITLE "P1Q_t_0040-0049_53"
    INDEX 01 01:28:54
  TRACK 54 AUDIO
    TITLE "P1Q_t_0040-0049_54"
    INDEX 01 01:33:35
  TRACK 55 AUDIO
    TITLE "P1Q_t_0040-0049_55"
    INDEX 01 01:34:07
  TRACK 56 AUDIO
    TITLE "P1Q_t_0040-0049_56"
    INDEX 01 01:35:21
  TRACK 57 AUDIO
    TITLE "P1Q_t_0040-0049_57"
    INDEX 01 01:35:42
  TRACK 58 AUDIO
    TITLE "P1Q_t_0040-0049_58"
    INDEX 01 01:37:45
  TRACK 59 AUDIO
    TITLE "P1Q_t_0040-0049_59"
    INDEX 01 01:37:65
  TRACK 60 AUDIO
    TITLE "P1Q_t_0040-0049_60"
    INDEX 01 01:42:44
